<?xml version="1.0" encoding="UTF-8" standalone="no"?>
<!-- Created with Inkscape (http://www.inkscape.org/) -->

<svg
   width="250"
   height="250"
   viewBox="0 0 66.145832 66.145833"
   version="1.1"
   id="svg481"
   inkscape:export-filename="../cede3936/maskable.png"
   inkscape:export-xdpi="75.264"
   inkscape:export-ydpi="75.264"
   inkscape:version="1.2.1 (2ed6d7ae0b, 2022-08-22, custom)"
   sodipodi:docname="logo-thick.svg"
   xmlns:inkscape="http://www.inkscape.org/namespaces/inkscape"
   xmlns:sodipodi="http://sodipodi.sourceforge.net/DTD/sodipodi-0.dtd"
   xmlns="http://www.w3.org/2000/svg"
   xmlns:svg="http://www.w3.org/2000/svg">
  <sodipodi:namedview
     id="namedview483"
     pagecolor="#505050"
     bordercolor="#eeeeee"
     borderopacity="1"
     inkscape:showpageshadow="0"
     inkscape:pageopacity="0"
     inkscape:pagecheckerboard="0"
     inkscape:deskcolor="#505050"
     inkscape:document-units="mm"
     showgrid="false"
     inkscape:zoom="1.9628562"
     inkscape:cx="114.88361"
     inkscape:cy="131.44111"
     inkscape:window-width="1920"
     inkscape:window-height="946"
     inkscape:window-x="0"
     inkscape:window-y="27"
     inkscape:window-maximized="1"
     inkscape:current-layer="layer1" />
  <defs
     id="defs478" />
  <g
     inkscape:label="Layer 1"
     inkscape:groupmode="layer"
     id="layer1">
    <rect
       style="fill:#ffffff;fill-opacity:1;stroke:none;stroke-width:0.250408;stroke-linecap:round;stroke-dasharray:none;stroke-opacity:0.905882"
       id="rect2538"
       width="66.145836"
       height="66.145836"
       x="1.110223e-15"
       y="0"
       ry="0" />
    <g
       id="g1565"
       transform="matrix(0.5708429,0,0,0.5708429,14.163573,13.673883)">
      <g
         id="g6854"
         transform="translate(-0.37795275,3.760798)">
        <path
           style="fill:#ff0000;fill-opacity:1;stroke:#865a5a;stroke-width:0.0973356;stroke-linecap:round;stroke-dasharray:none;stroke-opacity:0.905882"
           d="m 30.570427,32.632088 c 0,0 -2.027217,-1.337026 -1.410835,-2.24386 0.616383,-0.906834 1.486643,0.152239 1.486643,0.152239 0,0 0.25518,-0.720312 1.074285,-0.374282 0.819105,0.346031 0.701635,1.534585 -1.150093,2.465903 z"
           id="path990" />
        <g
           id="g6807"
           transform="translate(-0.03228732,1.9631711)">
          <g
             id="g2615"
             transform="translate(-3.3892731,-0.69639394)">
            <g
               id="g1867"
               transform="translate(37.720325,41.338943)">
              <path
                 style="fill:#1a1a1a;fill-opacity:1;stroke:#531212;stroke-width:0;stroke-linecap:round;stroke-dasharray:none;stroke-opacity:0.905882"
                 d="m -22.061437,-23.836562 c 0,0 -1.202296,-1.206389 -1.728158,-0.464613 -0.525863,0.741776 -1.127599,1.816008 -0.349285,2.61564 0.778313,0.799633 0.916868,0.989198 0.916868,0.989198 0,0 1.778741,6.611532 1.628785,7.724873 -0.149956,1.11334 -4.310879,-1.227936 -4.631363,-1.736632 -0.320484,-0.508697 -1.111795,-0.486866 -1.770528,-0.947295 -0.658735,-0.460429 -0.511233,-0.544945 -0.887611,-1.077694 -0.37638,-0.532749 0.0796,-0.0269 -0.733814,-0.88198 -0.813408,-0.855082 -0.710932,-0.263124 -0.876993,-1.109219 -0.16606,-0.846096 -1.328541,2.536315 -0.229994,-1.234664 1.098547,-3.770979 2.902926,-9.963233 3.172515,-11.185735 0.269592,-1.2225 0.927288,-3.9848 3.08373,-4.498494 2.156441,-0.513693 5.221357,-0.437673 5.221357,-0.437673 0,0 0.217018,-0.597176 1.99594,-0.09715 1.778922,0.500025 3.291644,0.984329 4.253721,2.754381 0.962076,1.770055 2.186709,2.289797 2.254107,6.90063 0.0674,4.610835 0.556272,11.058345 -0.30923,11.445699 -0.865501,0.387355 -2.974109,-0.644085 -2.974109,-0.644085 0,0 1.856069,-3.923376 1.968482,-5.148093 0.112413,-1.224717 0.475185,-6.130435 0.475185,-6.130435 0,0 -1.913014,-1.508242 -2.642067,-2.628109 -0.729052,-1.11987 0.684046,0.714118 -1.571583,2.24605 -2.255629,1.531933 -4.925364,1.91632 -5.479752,2.72608 -0.554388,0.80976 -0.786203,0.81932 -0.786203,0.81932 z"
                 id="path988"
                 sodipodi:nodetypes="csscssssssssscsssscscsssc" />
              <g
                 id="g1857"
                 style="stroke-width:0.4;stroke-dasharray:none">
                <path
                   style="fill:none;stroke:#865a5a;stroke-width:0.4;stroke-linecap:round;stroke-dasharray:none;stroke-opacity:0.905882"
                   d="m -11.733061,-26.889646 c 0,0 -0.0705,2.966681 -0.269792,5.165809 -0.199289,2.199129 -1.483157,5.944916 -2.639314,6.259937 -1.156158,0.315021 -5.999278,-1.951493 -5.999278,-1.951493"
                   id="path365" />
                <g
                   id="g1849"
                   style="stroke-width:0.4;stroke-dasharray:none">
                  <path
                     style="fill:none;stroke:#865a5a;stroke-width:0.4;stroke-linecap:round;stroke-dasharray:none;stroke-opacity:0.905882"
                     d="m -14.521346,-23.168605 0.664789,2.263379 -1.147543,0.544943"
                     id="path984" />
                  <path
                     style="fill:none;stroke:#865a5a;stroke-width:0.4;stroke-linecap:round;stroke-dasharray:none;stroke-opacity:0.905882"
                     d="m -17.553355,-19.140303 c 0,0 2.257373,1.340077 3.381592,0.464095"
                     id="path986" />
                  <ellipse
                     style="fill:#333333;fill-opacity:1;stroke:none;stroke-width:0.4;stroke-linecap:round;stroke-dasharray:none;stroke-opacity:0.905882"
                     id="path1737"
                     cx="-17.820517"
                     cy="-22.52034"
                     rx="0.39140674"
                     ry="0.60592318" />
                  <ellipse
                     style="fill:#333333;fill-opacity:1;stroke:none;stroke-width:0.4;stroke-linecap:round;stroke-dasharray:none;stroke-opacity:0.905882"
                     id="ellipse1843"
                     cx="-12.596459"
                     cy="-23.261513"
                     rx="0.39140674"
                     ry="0.60592318" />
                </g>
              </g>
              <path
                 style="fill:none;fill-opacity:1;stroke:#ffffff;stroke-width:0.1;stroke-linecap:round;stroke-dasharray:none;stroke-opacity:0.905882"
                 d="m -25.385523,-14.284154 c -0.741201,-3.839053 -0.196599,-5.012991 -0.196599,-5.012991"
                 id="path2029" />
              <path
                 style="fill:none;fill-opacity:1;stroke:#ffffff;stroke-width:0.1;stroke-linecap:round;stroke-dasharray:none;stroke-opacity:0.905882"
                 d="m -29.210622,-17.65717 c 0.301106,-3.090956 1.500865,-7.838404 1.500865,-7.838404"
                 id="path2346"
                 sodipodi:nodetypes="cc" />
            </g>
            <path
               style="fill:none;fill-opacity:1;stroke:#4b3c3c;stroke-width:0.6;stroke-linecap:round;stroke-dasharray:none;stroke-opacity:0.905882"
               d="m 22.929767,26.095353 c 0.217911,0 3.901054,1.116794 4.126696,1.256068 0.225642,0.139274 4.567021,7.197264 4.567021,7.197264 l -1.75959,3.017975 -1.363308,0.518859 c 0,0 -0.05814,-1.409179 -0.797309,-2.934592 -0.739167,-1.525413 -0.619469,-2.317128 -0.619469,-2.317128"
               id="path2411" />
            <path
               style="fill:none;fill-opacity:1;stroke:#4b3c3c;stroke-width:0.6;stroke-linecap:round;stroke-dasharray:none;stroke-opacity:0.905882"
               d="m 12.116352,27.025605 c 0,0 -5.2077799,2.265074 -5.568022,3.797551 -0.3602418,1.53248 -1.1618669,12.822608 -1.4411365,15.771003 -0.2792692,2.948395 1.1055641,3.451122 1.1055641,3.451122 0,0 7.9389064,-0.774502 8.6784524,-2.504221 0.739547,-1.729718 -0.72127,-2.541002 -0.556614,-4.198617 0.164656,-1.657617 0.691368,-0.16446 0.164656,-2.515328 -0.526712,-2.350865 -0.636414,-1.5539 -0.838606,-3.133695"
               id="path2413" />
            <path
               style="fill:none;fill-opacity:1;stroke:#4b3c3c;stroke-width:0.6;stroke-linecap:round;stroke-dasharray:none;stroke-opacity:0.905882"
               d="m 14.735146,47.902801 0.57819,1.615517 11.086216,-7.613494 c 0,0 0.243476,-2.519989 1.392633,-3.312739 1.149159,-0.792747 2.04769,-1.026671 2.04769,-1.026671 l -0.600081,1.119857 0.727004,0.326586 c 0,0 2.016792,-0.759873 2.759842,-1.810591 0.743051,-1.050719 1.208916,-2.060033 1.611577,-1.999031 0.402664,0.061 -0.246951,1.130062 -0.656622,2.050161 -0.409667,0.920099 0.747337,-1.246492 0.747337,-1.246492 0,0 0.35573,-0.382439 0.444461,-0.157678 0.08873,0.224758 -0.251603,1.152758 -0.251603,1.152758 l 0.290438,-0.112988 c 0,0 0.105143,0.521706 -0.03896,0.894638 -0.144103,0.372931 -1.68733,3.164115 -1.987442,3.58397 -0.300109,0.419854 -3.090751,2.941703 -3.956841,3.081461 -0.866092,0.139756 -12.275873,13.440442 -14.627312,13.819278 -2.351439,0.378835 -5.3261824,-5.850941 -5.9467258,-8.46328"
               id="path2415" />
            <g
               id="g2595">
              <path
                 style="fill:#8a7b7b;fill-opacity:1;stroke:#4b3c3c;stroke-width:0.1;stroke-linecap:round;stroke-dasharray:none;stroke-opacity:0.905882"
                 d="m 29.902001,38.820902 c 0,0 2.308479,-4.779574 2.644344,-4.830636 0.335868,-0.05106 3.649446,-0.07368 3.880162,0.05768 0.230714,0.131363 -1.500867,2.873187 -1.500867,2.873187 0,0 -0.243922,0.228963 -0.294804,0.107926 -0.05088,-0.121038 0.253796,-0.64925 0.276958,-1.106453 0.02315,-0.4572 -0.559652,0.05054 -0.559652,0.05054 0,0 0.279641,-0.671126 0.229092,-0.783889 -0.05055,-0.112765 -0.618154,-0.115935 -0.890125,0.304504 -0.27197,0.420436 -0.961014,1.766371 -1.25195,1.940885 -0.290933,0.174514 -2.533158,1.386253 -2.533158,1.386253 z"
                 id="path2417" />
              <path
                 style="fill:none;fill-opacity:1;stroke:#4b3c3c;stroke-width:0.1;stroke-linecap:round;stroke-dasharray:none;stroke-opacity:0.905882"
                 d="m 31.599976,34.493496 c 0,0 0.329303,-0.883912 0.695758,-0.974818 0.366456,-0.09091 3.508833,-0.06585 3.709919,0.01323 0.201083,0.07909 0.57087,0.410557 0.526844,0.494157 -0.04403,0.0836 -0.0437,0.08544 -0.0437,0.08544"
                 id="path2419" />
              <path
                 style="fill:#1f1f1f;fill-opacity:1;stroke:#4b3c3c;stroke-width:0.1;stroke-linecap:round;stroke-dasharray:none;stroke-opacity:0.905882"
                 d="m 35.03668,34.454883 -0.185428,0.445188 0.924126,0.01582 0.2173,-0.472583 z"
                 id="path2421" />
            </g>
          </g>
          <g
             id="g6782">
            <path
               style="fill:none;fill-opacity:1;stroke:#e3ae28;stroke-width:0.25;stroke-linecap:round;stroke-dasharray:none;stroke-opacity:1"
               d="m 9.9688051,18.794447 c 0,0 -0.7434637,0.613243 0.1073879,0.667491 0.686169,0.04375 0.505489,-0.461584 0.505489,-0.461584"
               id="path6108"
               sodipodi:nodetypes="csc" />
            <path
               style="fill:none;fill-opacity:1;stroke:#875b5b;stroke-width:0.25;stroke-linecap:round;stroke-dasharray:none;stroke-opacity:1"
               d="m 10.588853,17.496975 c 0,0 -0.415867,0.116136 -0.01825,0.780754 0.397615,0.664617 0.42465,0.799935 0.659344,0.709319"
               id="path6236" />
            <path
               style="fill:none;fill-opacity:1;stroke:#e3ae28;stroke-width:0.25;stroke-linecap:round;stroke-dasharray:none;stroke-opacity:1"
               d="m 9.8549192,17.582078 c 0,0 -0.9619873,-0.05819 -0.3764805,0.56155 0.4721809,0.499788 0.6844933,0.0069 0.6844933,0.0069"
               id="path6448"
               sodipodi:nodetypes="csc" />
          </g>
        </g>
      </g>
      <g
         id="g6755"
         transform="translate(-0.37858975,3.798993)">
        <g
           id="g6724">
          <g
             id="g2691"
             transform="matrix(-1,0,0,1,70.42781,-2.103237)">
            <g
               id="g2675"
               transform="translate(37.720325,41.338943)">
              <g
                 id="g2669"
                 style="stroke-width:0.2;stroke-dasharray:none">
                <path
                   style="fill:none;stroke:#865a5a;stroke-width:0.501499;stroke-linecap:round;stroke-dasharray:none;stroke-opacity:0.905882"
                   d="m -10.719663,-26.646223 c 0,0 -0.0705,2.966681 -0.269792,5.165809 -0.199289,2.199129 -3.387874,5.964986 -4.544031,6.280007 -1.156158,0.315021 -4.094561,-1.971563 -4.094561,-1.971563"
                   id="path2657"
                   sodipodi:nodetypes="cssc" />
                <g
                   id="g2667"
                   style="stroke-width:0.4012;stroke-dasharray:none">
                  <path
                     style="fill:none;stroke:#865a5a;stroke-width:0.4012;stroke-linecap:round;stroke-dasharray:none;stroke-opacity:0.905882"
                     d="m -14.521346,-23.168605 0.664789,2.263379 -1.147543,0.544943"
                     id="path2659" />
                  <path
                     style="fill:none;stroke:#865a5a;stroke-width:0.4012;stroke-linecap:round;stroke-dasharray:none;stroke-opacity:0.905882"
                     d="m -17.553355,-19.140303 c 0,0 2.257373,1.340077 3.381592,0.464095"
                     id="path2661" />
                  <ellipse
                     style="fill:#333333;fill-opacity:1;stroke:none;stroke-width:0.4012;stroke-linecap:round;stroke-dasharray:none;stroke-opacity:0.905882"
                     id="ellipse2663"
                     cx="-17.820517"
                     cy="-22.52034"
                     rx="0.39140674"
                     ry="0.60592318" />
                  <ellipse
                     style="fill:#333333;fill-opacity:1;stroke:none;stroke-width:0.4012;stroke-linecap:round;stroke-dasharray:none;stroke-opacity:0.905882"
                     id="ellipse2665"
                     cx="-12.596459"
                     cy="-23.261513"
                     rx="0.39140674"
                     ry="0.60592318" />
                </g>
              </g>
              <path
                 style="fill:#1a1a1a;fill-opacity:1;stroke:none;stroke-width:0.25;stroke-linecap:round;stroke-dasharray:none;stroke-opacity:0.905882"
                 d="m -22.445341,-20.756371 c 0,0 -1.140906,-0.676265 -0.903379,-1.634851 0.237526,-0.958586 0.521582,-1.644176 1.01005,-1.691144 0.488469,-0.04697 1.452223,0.542066 1.452223,0.542066 0,0 0.294517,-0.558962 1.119513,-0.922839 0.824997,-0.363876 0.319989,0.114452 2.785778,-1.351112 2.231508,-1.326317 1.979693,-1.976305 3.869597,-1.526831 1.889903,0.449475 1.863064,0.226913 2.068154,0.528157 0.205091,0.301245 0.459348,2.494802 0.459348,2.494802 0,0 0.456419,-0.276121 0.7214675,-1.154572 0.265049,-0.878451 0.385006,-2.305713 0.252869,-3.26464 -0.132139,-0.958927 -2.0502255,-4.149121 -2.3670995,-4.593494 -7.74235,1.547564 -7.963436,1.599741 -15.054064,5.629855 0.29465,1.787571 -0.138551,2.578504 0.129793,3.449002 0.268344,0.870497 0.248069,1.254859 0.248069,2.058983 0,0.804124 -0.749633,0.473066 0.709769,1.315017 1.459402,0.841951 0.104971,1.719734 0.868109,1.014322 0.763138,-0.705411 0.844187,-1.340275 1.658166,-1.015064 0.813978,0.32521 0.971659,0.122343 0.971659,0.122343 z"
                 id="path2819"
                 sodipodi:nodetypes="csscsssscssccssssscc" />
            </g>
            <path
               style="fill:none;fill-opacity:1;stroke:#4b3c3c;stroke-width:0.601799;stroke-linecap:round;stroke-dasharray:none;stroke-opacity:0.905882"
               d="m 22.929767,26.095353 c 0.217911,0 3.901054,1.116794 4.126696,1.256068 0.225642,0.139274 4.567021,7.197264 4.567021,7.197264 l -1.75959,3.017975 -1.363308,0.518859 c 0,0 -0.05814,-1.409179 -0.797309,-2.934592 -0.739167,-1.525413 -0.619469,-2.317128 -0.619469,-2.317128"
               id="path2677" />
            <path
               style="fill:none;fill-opacity:1;stroke:#4b3c3c;stroke-width:0.601799;stroke-linecap:round;stroke-dasharray:none;stroke-opacity:0.905882"
               d="m 13.660646,37.69342 c 0.202192,1.579795 0.311894,0.78283 0.838606,3.133695 0.526712,2.350868 0,0.857711 -0.164656,2.515328 -0.164656,1.657615 1.296161,2.468899 0.556614,4.198617 -0.739546,1.729719 -8.6784524,2.504221 -8.6784524,2.504221 0,0 -1.3848333,-0.502727 -1.1055641,-3.451122 0.2792696,-2.948395 1.0808947,-14.238523 1.4411365,-15.771003 0.3602421,-1.532477 6.108139,-4.62141 6.108139,-4.62141 0,0 1.242922,-3.62851 0.754767,-5.326819"
               id="path2679"
               sodipodi:nodetypes="csscsssc" />
            <path
               style="fill:none;fill-opacity:1;stroke:#4b3c3c;stroke-width:0.601799;stroke-linecap:round;stroke-dasharray:none;stroke-opacity:0.905882"
               d="m 14.735146,47.902801 0.57819,1.615517 11.086216,-7.613494 c 0,0 0.243476,-2.519989 1.392633,-3.312739 1.149159,-0.792747 2.04769,-1.026671 2.04769,-1.026671 l -0.600081,1.119857 0.727004,0.326586 c 0,0 2.016792,-0.759873 2.759842,-1.810591 0.743051,-1.050719 1.208916,-2.060033 1.611577,-1.999031 0.402664,0.061 -0.246951,1.130062 -0.656622,2.050161 -0.409667,0.920099 0.747337,-1.246492 0.747337,-1.246492 0,0 0.35573,-0.382439 0.444461,-0.157678 0.08873,0.224758 -0.251603,1.152758 -0.251603,1.152758 l 0.290438,-0.112988 c 0,0 0.105143,0.521706 -0.03896,0.894638 -0.144103,0.372931 -1.68733,3.164115 -1.987442,3.58397 -0.300109,0.419854 -3.090751,2.941703 -3.956841,3.081461 -0.866092,0.139756 -12.275873,13.440442 -14.627312,13.819278 -2.351439,0.378835 -5.3261824,-5.850941 -5.9467258,-8.46328"
               id="path2681" />
            <g
               id="g2689">
              <path
                 style="fill:#8a7b7b;fill-opacity:1;stroke:#4b3c3c;stroke-width:0.1;stroke-linecap:round;stroke-dasharray:none;stroke-opacity:0.905882"
                 d="m 29.902001,38.820902 c 0,0 2.308479,-4.779574 2.644344,-4.830636 0.335868,-0.05106 3.649446,-0.07368 3.880162,0.05768 0.230714,0.131363 -1.500867,2.873187 -1.500867,2.873187 0,0 -0.243922,0.228963 -0.294804,0.107926 -0.05088,-0.121038 0.253796,-0.64925 0.276958,-1.106453 0.02315,-0.4572 -0.559652,0.05054 -0.559652,0.05054 0,0 0.279641,-0.671126 0.229092,-0.783889 -0.05055,-0.112765 -0.618154,-0.115935 -0.890125,0.304504 -0.27197,0.420436 -0.961014,1.766371 -1.25195,1.940885 -0.290933,0.174514 -2.533158,1.386253 -2.533158,1.386253 z"
                 id="path2683" />
              <path
                 style="fill:none;fill-opacity:1;stroke:#4b3c3c;stroke-width:0.1;stroke-linecap:round;stroke-dasharray:none;stroke-opacity:0.905882"
                 d="m 31.599976,34.493496 c 0,0 0.329303,-0.883912 0.695758,-0.974818 0.366456,-0.09091 3.508833,-0.06585 3.709919,0.01323 0.201083,0.07909 0.57087,0.410557 0.526844,0.494157 -0.04403,0.0836 -0.0437,0.08544 -0.0437,0.08544"
                 id="path2685" />
              <path
                 style="fill:#1f1f1f;fill-opacity:1;stroke:#4b3c3c;stroke-width:0.1;stroke-linecap:round;stroke-dasharray:none;stroke-opacity:0.905882"
                 d="m 35.03668,34.454883 -0.185428,0.445188 0.924126,0.01582 0.2173,-0.472583 z"
                 id="path2687" />
            </g>
            <path
               style="fill:none;fill-opacity:1;stroke:#4b3c3c;stroke-width:0.501499;stroke-linecap:round;stroke-dasharray:none;stroke-opacity:0.905882"
               d="m 22.931332,26.155651 c 0,0 0.192564,0.0976 -0.398409,1.200599 -0.562317,1.049513 -0.565254,1.081211 -1.809732,1.30633 -1.244479,0.2251 -2.651072,-0.07571 -4.330476,-0.783847 -3.8154,-1.608795 -3.704457,-1.720578 -3.704457,-1.720578"
               id="path3160"
               sodipodi:nodetypes="csssc" />
          </g>
          <g
             id="g2817">
            <rect
               style="fill:#ffffff;fill-opacity:1;stroke:#4b3c3c;stroke-width:0.25;stroke-linecap:round;stroke-dasharray:none;stroke-opacity:0.905882"
               id="rect2745"
               width="9.3667965"
               height="2.696831"
               x="30.844481"
               y="26.24099" />
            <path
               style="fill:#ffffff;fill-opacity:1;stroke:#4b3c3c;stroke-width:0.25;stroke-linecap:round;stroke-dasharray:none;stroke-opacity:0.905882"
               d="m 31.689632,27.864964 h 5.849906"
               id="path2810" />
            <path
               style="fill:#ffffff;fill-opacity:1;stroke:#4b3c3c;stroke-width:0.25;stroke-linecap:round;stroke-dasharray:none;stroke-opacity:0.905882"
               d="m 31.58001,27.012201 h 3.602556"
               id="path2812" />
          </g>
          <g
             id="g6459"
             transform="translate(0.19475106,-0.27009973)">
            <path
               style="fill:#3ca2ea;fill-opacity:1;stroke:none;stroke-width:0.25;stroke-linecap:round;stroke-dasharray:none;stroke-opacity:0.905882"
               d="m 28.275879,14.931309 c 0,0 -4.284188,-3.334204 -7.258655,-2.285342 -2.974467,1.048862 -1.917676,1.122963 -5.490654,3.789705 -3.572978,2.666742 -4.498509,5.407285 -4.661352,3.625839 -0.04288,-0.469074 0.265097,-1.238869 -0.698116,-4.522555 C 9.2038889,12.25527 9.5053525,13.001721 10.21161,11.990034 10.91787,10.978347 11.451342,11.047746 10.985268,9.5079341 10.519193,7.9681223 9.4873106,8.4380374 9.9394782,6.457836 10.391648,4.4776343 10.113058,4.4555442 11.562903,3.6941894 c 1.449843,-0.7613548 1.2782,-1.0805058 3.395668,-0.3665214 2.117468,0.7139844 4.882891,0.1459327 6.701668,1.6838893 1.81878,1.5379568 4.599949,1.9100465 6.204959,5.1249567 1.605011,3.21491 0.410681,4.794795 0.410681,4.794795 z"
               id="path3225"
               sodipodi:nodetypes="csssssssssssc"
               transform="matrix(-1,0,0,1,70.42781,-2.103237)" />
            <path
               style="fill:none;fill-opacity:1;stroke:#4958d6;stroke-width:0.25;stroke-linecap:round;stroke-dasharray:none;stroke-opacity:0.905882"
               d="m 13.486054,9.1867979 c 0,0 -1.367208,0.6176899 -1.995419,1.8824311"
               id="path3290"
               transform="matrix(-1,0,0,1,70.42781,-2.103237)" />
            <path
               style="fill:none;fill-opacity:1;stroke:#4958d6;stroke-width:0.25;stroke-linecap:round;stroke-dasharray:none;stroke-opacity:0.905882"
               d="m 18.626347,11.292939 c 0,0 -6.493411,4.005701 -7.706034,7.333826"
               id="path6001"
               sodipodi:nodetypes="cc"
               transform="matrix(-1,0,0,1,70.42781,-2.103237)" />
            <path
               style="fill:none;fill-opacity:1;stroke:#4958d6;stroke-width:0.25;stroke-linecap:round;stroke-dasharray:none;stroke-opacity:0.905882"
               d="m 51.941581,9.2144645 c 0,0 -4.933251,-2.3840754 -10.135722,1.9036515"
               id="path6017" />
          </g>
        </g>
        <path
           style="fill:none;fill-opacity:1;stroke:#875b5b;stroke-width:0.501499;stroke-linecap:round;stroke-dasharray:none;stroke-opacity:1"
           d="m 54.886295,15.918709 c 0,0 0.869591,0.622063 0.471974,1.286681 -0.397615,0.664617 -0.293877,0.762799 -0.528571,0.672183"
           id="path6450"
           sodipodi:nodetypes="csc" />
      </g>
    </g>
  </g>
</svg>
